<?xml version="1.0" encoding="utf-8"?>
<svg xmlns="http://www.w3.org/2000/svg" xmlns:xlink="http://www.w3.org/1999/xlink" width="600" height="400" viewBox="0 0 2400 1600">
<defs>
  <clipPath id="clip500">
    <rect x="0" y="0" width="2400" height="1600"/>
  </clipPath>
</defs>
<path clip-path="url(#clip500)" d="M0 1600 L2400 1600 L2400 0 L0 0  Z" fill="#ffffff" fill-rule="evenodd" fill-opacity="1"/>
<defs>
  <clipPath id="clip501">
    <rect x="480" y="0" width="1681" height="1600"/>
  </clipPath>
</defs>
<path clip-path="url(#clip500)" d="M205.121 1423.18 L2352.76 1423.18 L2352.76 47.2441 L205.121 47.2441  Z" fill="#ffffff" fill-rule="evenodd" fill-opacity="1"/>
<defs>
  <clipPath id="clip502">
    <rect x="205" y="47" width="2149" height="1377"/>
  </clipPath>
</defs>
<polyline clip-path="url(#clip502)" style="stroke:#000000; stroke-linecap:round; stroke-linejoin:round; stroke-width:2; stroke-opacity:0.1; fill:none" points="482.527,1423.18 482.527,47.2441 "/>
<polyline clip-path="url(#clip502)" style="stroke:#000000; stroke-linecap:round; stroke-linejoin:round; stroke-width:2; stroke-opacity:0.1; fill:none" points="880.733,1423.18 880.733,47.2441 "/>
<polyline clip-path="url(#clip502)" style="stroke:#000000; stroke-linecap:round; stroke-linejoin:round; stroke-width:2; stroke-opacity:0.1; fill:none" points="1278.94,1423.18 1278.94,47.2441 "/>
<polyline clip-path="url(#clip502)" style="stroke:#000000; stroke-linecap:round; stroke-linejoin:round; stroke-width:2; stroke-opacity:0.1; fill:none" points="1677.14,1423.18 1677.14,47.2441 "/>
<polyline clip-path="url(#clip502)" style="stroke:#000000; stroke-linecap:round; stroke-linejoin:round; stroke-width:2; stroke-opacity:0.1; fill:none" points="2075.35,1423.18 2075.35,47.2441 "/>
<polyline clip-path="url(#clip500)" style="stroke:#000000; stroke-linecap:round; stroke-linejoin:round; stroke-width:4; stroke-opacity:1; fill:none" points="205.121,1423.18 2352.76,1423.18 "/>
<polyline clip-path="url(#clip500)" style="stroke:#000000; stroke-linecap:round; stroke-linejoin:round; stroke-width:4; stroke-opacity:1; fill:none" points="482.527,1423.18 482.527,1404.28 "/>
<polyline clip-path="url(#clip500)" style="stroke:#000000; stroke-linecap:round; stroke-linejoin:round; stroke-width:4; stroke-opacity:1; fill:none" points="880.733,1423.18 880.733,1404.28 "/>
<polyline clip-path="url(#clip500)" style="stroke:#000000; stroke-linecap:round; stroke-linejoin:round; stroke-width:4; stroke-opacity:1; fill:none" points="1278.94,1423.18 1278.94,1404.28 "/>
<polyline clip-path="url(#clip500)" style="stroke:#000000; stroke-linecap:round; stroke-linejoin:round; stroke-width:4; stroke-opacity:1; fill:none" points="1677.14,1423.18 1677.14,1404.28 "/>
<polyline clip-path="url(#clip500)" style="stroke:#000000; stroke-linecap:round; stroke-linejoin:round; stroke-width:4; stroke-opacity:1; fill:none" points="2075.35,1423.18 2075.35,1404.28 "/>
<path clip-path="url(#clip500)" d="M451.509 1463.59 L451.509 1449.56 L455.768 1449.56 L455.768 1485.58 L451.509 1485.58 L451.509 1481.69 Q450.166 1484.01 448.106 1485.14 Q446.069 1486.25 443.199 1486.25 Q438.499 1486.25 435.537 1482.5 Q432.597 1478.75 432.597 1472.64 Q432.597 1466.53 435.537 1462.78 Q438.499 1459.03 443.199 1459.03 Q446.069 1459.03 448.106 1460.16 Q450.166 1461.27 451.509 1463.59 M436.995 1472.64 Q436.995 1477.34 438.916 1480.02 Q440.861 1482.69 444.24 1482.69 Q447.62 1482.69 449.564 1480.02 Q451.509 1477.34 451.509 1472.64 Q451.509 1467.94 449.564 1465.28 Q447.62 1462.59 444.24 1462.59 Q440.861 1462.59 438.916 1465.28 Q436.995 1467.94 436.995 1472.64 Z" fill="#000000" fill-rule="nonzero" fill-opacity="1" /><path clip-path="url(#clip500)" d="M476.323 1472.55 Q471.161 1472.55 469.171 1473.73 Q467.18 1474.91 467.18 1477.76 Q467.18 1480.02 468.661 1481.37 Q470.166 1482.69 472.735 1482.69 Q476.277 1482.69 478.407 1480.19 Q480.559 1477.66 480.559 1473.5 L480.559 1472.55 L476.323 1472.55 M484.819 1470.79 L484.819 1485.58 L480.559 1485.58 L480.559 1481.64 Q479.101 1484.01 476.925 1485.14 Q474.749 1486.25 471.601 1486.25 Q467.62 1486.25 465.259 1484.03 Q462.921 1481.78 462.921 1478.03 Q462.921 1473.66 465.837 1471.44 Q468.777 1469.21 474.587 1469.21 L480.559 1469.21 L480.559 1468.8 Q480.559 1465.86 478.615 1464.26 Q476.694 1462.64 473.198 1462.64 Q470.976 1462.64 468.87 1463.17 Q466.763 1463.7 464.819 1464.77 L464.819 1460.83 Q467.157 1459.93 469.356 1459.49 Q471.555 1459.03 473.638 1459.03 Q479.263 1459.03 482.041 1461.95 Q484.819 1464.86 484.819 1470.79 Z" fill="#000000" fill-rule="nonzero" fill-opacity="1" /><path clip-path="url(#clip500)" d="M497.805 1452.29 L497.805 1459.65 L506.578 1459.65 L506.578 1462.96 L497.805 1462.96 L497.805 1477.04 Q497.805 1480.21 498.661 1481.11 Q499.541 1482.02 502.203 1482.02 L506.578 1482.02 L506.578 1485.58 L502.203 1485.58 Q497.272 1485.58 495.397 1483.75 Q493.522 1481.9 493.522 1477.04 L493.522 1462.96 L490.397 1462.96 L490.397 1459.65 L493.522 1459.65 L493.522 1452.29 L497.805 1452.29 Z" fill="#000000" fill-rule="nonzero" fill-opacity="1" /><path clip-path="url(#clip500)" d="M523.962 1472.55 Q518.8 1472.55 516.809 1473.73 Q514.818 1474.91 514.818 1477.76 Q514.818 1480.02 516.3 1481.37 Q517.805 1482.69 520.374 1482.69 Q523.916 1482.69 526.045 1480.19 Q528.198 1477.66 528.198 1473.5 L528.198 1472.55 L523.962 1472.55 M532.457 1470.79 L532.457 1485.58 L528.198 1485.58 L528.198 1481.64 Q526.74 1484.01 524.564 1485.14 Q522.388 1486.25 519.24 1486.25 Q515.258 1486.25 512.897 1484.03 Q510.559 1481.78 510.559 1478.03 Q510.559 1473.66 513.476 1471.44 Q516.416 1469.21 522.226 1469.21 L528.198 1469.21 L528.198 1468.8 Q528.198 1465.86 526.254 1464.26 Q524.332 1462.64 520.837 1462.64 Q518.615 1462.64 516.508 1463.17 Q514.402 1463.7 512.457 1464.77 L512.457 1460.83 Q514.795 1459.93 516.994 1459.49 Q519.193 1459.03 521.277 1459.03 Q526.902 1459.03 529.68 1461.95 Q532.457 1464.86 532.457 1470.79 Z" fill="#000000" fill-rule="nonzero" fill-opacity="1" /><path clip-path="url(#clip500)" d="M728.396 1481.69 L728.396 1495.44 L724.113 1495.44 L724.113 1459.65 L728.396 1459.65 L728.396 1463.59 Q729.738 1461.27 731.775 1460.16 Q733.835 1459.03 736.683 1459.03 Q741.405 1459.03 744.345 1462.78 Q747.308 1466.53 747.308 1472.64 Q747.308 1478.75 744.345 1482.5 Q741.405 1486.25 736.683 1486.25 Q733.835 1486.25 731.775 1485.14 Q729.738 1484.01 728.396 1481.69 M742.886 1472.64 Q742.886 1467.94 740.942 1465.28 Q739.021 1462.59 735.641 1462.59 Q732.261 1462.59 730.317 1465.28 Q728.396 1467.94 728.396 1472.64 Q728.396 1477.34 730.317 1480.02 Q732.261 1482.69 735.641 1482.69 Q739.021 1482.69 740.942 1480.02 Q742.886 1477.34 742.886 1472.64 Z" fill="#000000" fill-rule="nonzero" fill-opacity="1" /><path clip-path="url(#clip500)" d="M769.391 1463.64 Q768.673 1463.22 767.817 1463.03 Q766.983 1462.83 765.965 1462.83 Q762.354 1462.83 760.409 1465.19 Q758.488 1467.52 758.488 1471.92 L758.488 1485.58 L754.206 1485.58 L754.206 1459.65 L758.488 1459.65 L758.488 1463.68 Q759.831 1461.32 761.983 1460.19 Q764.136 1459.03 767.215 1459.03 Q767.655 1459.03 768.187 1459.1 Q768.719 1459.14 769.368 1459.26 L769.391 1463.64 Z" fill="#000000" fill-rule="nonzero" fill-opacity="1" /><path clip-path="url(#clip500)" d="M782.863 1462.64 Q779.437 1462.64 777.446 1465.33 Q775.456 1467.99 775.456 1472.64 Q775.456 1477.29 777.423 1479.98 Q779.414 1482.64 782.863 1482.64 Q786.266 1482.64 788.256 1479.95 Q790.247 1477.27 790.247 1472.64 Q790.247 1468.03 788.256 1465.35 Q786.266 1462.64 782.863 1462.64 M782.863 1459.03 Q788.418 1459.03 791.59 1462.64 Q794.761 1466.25 794.761 1472.64 Q794.761 1479.01 791.59 1482.64 Q788.418 1486.25 782.863 1486.25 Q777.284 1486.25 774.113 1482.64 Q770.965 1479.01 770.965 1472.64 Q770.965 1466.25 774.113 1462.64 Q777.284 1459.03 782.863 1459.03 Z" fill="#000000" fill-rule="nonzero" fill-opacity="1" /><path clip-path="url(#clip500)" d="M818.881 1472.32 Q818.881 1467.69 816.96 1465.14 Q815.062 1462.59 811.613 1462.59 Q808.187 1462.59 806.266 1465.14 Q804.367 1467.69 804.367 1472.32 Q804.367 1476.92 806.266 1479.47 Q808.187 1482.02 811.613 1482.02 Q815.062 1482.02 816.96 1479.47 Q818.881 1476.92 818.881 1472.32 M823.14 1482.36 Q823.14 1488.98 820.201 1492.2 Q817.261 1495.44 811.196 1495.44 Q808.951 1495.44 806.96 1495.09 Q804.969 1494.77 803.094 1494.08 L803.094 1489.93 Q804.969 1490.95 806.798 1491.44 Q808.627 1491.92 810.525 1491.92 Q814.715 1491.92 816.798 1489.72 Q818.881 1487.55 818.881 1483.13 L818.881 1481.02 Q817.562 1483.31 815.502 1484.45 Q813.441 1485.58 810.571 1485.58 Q805.803 1485.58 802.886 1481.95 Q799.969 1478.31 799.969 1472.32 Q799.969 1466.3 802.886 1462.66 Q805.803 1459.03 810.571 1459.03 Q813.441 1459.03 815.502 1460.16 Q817.562 1461.3 818.881 1463.59 L818.881 1459.65 L823.14 1459.65 L823.14 1482.36 Z" fill="#000000" fill-rule="nonzero" fill-opacity="1" /><path clip-path="url(#clip500)" d="M846.937 1463.64 Q846.219 1463.22 845.363 1463.03 Q844.529 1462.83 843.511 1462.83 Q839.9 1462.83 837.955 1465.19 Q836.034 1467.52 836.034 1471.92 L836.034 1485.58 L831.752 1485.58 L831.752 1459.65 L836.034 1459.65 L836.034 1463.68 Q837.376 1461.32 839.529 1460.19 Q841.682 1459.03 844.761 1459.03 Q845.201 1459.03 845.733 1459.1 Q846.265 1459.14 846.913 1459.26 L846.937 1463.64 Z" fill="#000000" fill-rule="nonzero" fill-opacity="1" /><path clip-path="url(#clip500)" d="M863.187 1472.55 Q858.025 1472.55 856.034 1473.73 Q854.043 1474.91 854.043 1477.76 Q854.043 1480.02 855.525 1481.37 Q857.029 1482.69 859.599 1482.69 Q863.14 1482.69 865.27 1480.19 Q867.423 1477.66 867.423 1473.5 L867.423 1472.55 L863.187 1472.55 M871.682 1470.79 L871.682 1485.58 L867.423 1485.58 L867.423 1481.64 Q865.964 1484.01 863.788 1485.14 Q861.612 1486.25 858.464 1486.25 Q854.483 1486.25 852.122 1484.03 Q849.784 1481.78 849.784 1478.03 Q849.784 1473.66 852.7 1471.44 Q855.64 1469.21 861.45 1469.21 L867.423 1469.21 L867.423 1468.8 Q867.423 1465.86 865.478 1464.26 Q863.557 1462.64 860.062 1462.64 Q857.839 1462.64 855.733 1463.17 Q853.626 1463.7 851.682 1464.77 L851.682 1460.83 Q854.02 1459.93 856.219 1459.49 Q858.418 1459.03 860.501 1459.03 Q866.126 1459.03 868.904 1461.95 Q871.682 1464.86 871.682 1470.79 Z" fill="#000000" fill-rule="nonzero" fill-opacity="1" /><path clip-path="url(#clip500)" d="M900.64 1464.63 Q902.237 1461.76 904.459 1460.39 Q906.682 1459.03 909.691 1459.03 Q913.742 1459.03 915.941 1461.88 Q918.14 1464.7 918.14 1469.93 L918.14 1485.58 L913.858 1485.58 L913.858 1470.07 Q913.858 1466.34 912.538 1464.54 Q911.219 1462.73 908.51 1462.73 Q905.2 1462.73 903.279 1464.93 Q901.358 1467.13 901.358 1470.93 L901.358 1485.58 L897.075 1485.58 L897.075 1470.07 Q897.075 1466.32 895.756 1464.54 Q894.436 1462.73 891.682 1462.73 Q888.418 1462.73 886.497 1464.95 Q884.575 1467.15 884.575 1470.93 L884.575 1485.58 L880.293 1485.58 L880.293 1459.65 L884.575 1459.65 L884.575 1463.68 Q886.034 1461.3 888.071 1460.16 Q890.108 1459.03 892.909 1459.03 Q895.733 1459.03 897.7 1460.46 Q899.691 1461.9 900.64 1464.63 Z" fill="#000000" fill-rule="nonzero" fill-opacity="1" /><path clip-path="url(#clip500)" d="M946.82 1464.63 Q948.418 1461.76 950.64 1460.39 Q952.862 1459.03 955.871 1459.03 Q959.922 1459.03 962.121 1461.88 Q964.32 1464.7 964.32 1469.93 L964.32 1485.58 L960.038 1485.58 L960.038 1470.07 Q960.038 1466.34 958.718 1464.54 Q957.399 1462.73 954.691 1462.73 Q951.38 1462.73 949.459 1464.93 Q947.538 1467.13 947.538 1470.93 L947.538 1485.58 L943.256 1485.58 L943.256 1470.07 Q943.256 1466.32 941.936 1464.54 Q940.617 1462.73 937.862 1462.73 Q934.598 1462.73 932.677 1464.95 Q930.756 1467.15 930.756 1470.93 L930.756 1485.58 L926.473 1485.58 L926.473 1459.65 L930.756 1459.65 L930.756 1463.68 Q932.214 1461.3 934.251 1460.16 Q936.288 1459.03 939.089 1459.03 Q941.913 1459.03 943.881 1460.46 Q945.871 1461.9 946.82 1464.63 Z" fill="#000000" fill-rule="nonzero" fill-opacity="1" /><path clip-path="url(#clip500)" d="M972.816 1459.65 L977.075 1459.65 L977.075 1485.58 L972.816 1485.58 L972.816 1459.65 M972.816 1449.56 L977.075 1449.56 L977.075 1454.96 L972.816 1454.96 L972.816 1449.56 Z" fill="#000000" fill-rule="nonzero" fill-opacity="1" /><path clip-path="url(#clip500)" d="M1007.54 1469.93 L1007.54 1485.58 L1003.28 1485.58 L1003.28 1470.07 Q1003.28 1466.39 1001.84 1464.56 Q1000.41 1462.73 997.538 1462.73 Q994.089 1462.73 992.098 1464.93 Q990.107 1467.13 990.107 1470.93 L990.107 1485.58 L985.825 1485.58 L985.825 1459.65 L990.107 1459.65 L990.107 1463.68 Q991.635 1461.34 993.695 1460.19 Q995.778 1459.03 998.487 1459.03 Q1002.95 1459.03 1005.25 1461.81 Q1007.54 1464.56 1007.54 1469.93 Z" fill="#000000" fill-rule="nonzero" fill-opacity="1" /><path clip-path="url(#clip500)" d="M1033.09 1472.32 Q1033.09 1467.69 1031.17 1465.14 Q1029.27 1462.59 1025.82 1462.59 Q1022.4 1462.59 1020.48 1465.14 Q1018.58 1467.69 1018.58 1472.32 Q1018.58 1476.92 1020.48 1479.47 Q1022.4 1482.02 1025.82 1482.02 Q1029.27 1482.02 1031.17 1479.47 Q1033.09 1476.92 1033.09 1472.32 M1037.35 1482.36 Q1037.35 1488.98 1034.41 1492.2 Q1031.47 1495.44 1025.41 1495.44 Q1023.16 1495.44 1021.17 1495.09 Q1019.18 1494.77 1017.31 1494.08 L1017.31 1489.93 Q1019.18 1490.95 1021.01 1491.44 Q1022.84 1491.92 1024.74 1491.92 Q1028.93 1491.92 1031.01 1489.72 Q1033.09 1487.55 1033.09 1483.13 L1033.09 1481.02 Q1031.77 1483.31 1029.71 1484.45 Q1027.65 1485.58 1024.78 1485.58 Q1020.01 1485.58 1017.1 1481.95 Q1014.18 1478.31 1014.18 1472.32 Q1014.18 1466.3 1017.1 1462.66 Q1020.01 1459.03 1024.78 1459.03 Q1027.65 1459.03 1029.71 1460.16 Q1031.77 1461.3 1033.09 1463.59 L1033.09 1459.65 L1037.35 1459.65 L1037.35 1482.36 Z" fill="#000000" fill-rule="nonzero" fill-opacity="1" /><path clip-path="url(#clip500)" d="M1180.46 1471.55 L1180.46 1473.64 L1160.87 1473.64 Q1161.15 1478.03 1163.51 1480.35 Q1165.9 1482.64 1170.13 1482.64 Q1172.58 1482.64 1174.88 1482.04 Q1177.19 1481.44 1179.46 1480.23 L1179.46 1484.26 Q1177.17 1485.23 1174.76 1485.74 Q1172.35 1486.25 1169.88 1486.25 Q1163.67 1486.25 1160.04 1482.64 Q1156.43 1479.03 1156.43 1472.87 Q1156.43 1466.51 1159.85 1462.78 Q1163.3 1459.03 1169.14 1459.03 Q1174.37 1459.03 1177.4 1462.41 Q1180.46 1465.77 1180.46 1471.55 M1176.2 1470.3 Q1176.15 1466.81 1174.23 1464.72 Q1172.33 1462.64 1169.18 1462.64 Q1165.62 1462.64 1163.46 1464.65 Q1161.33 1466.67 1161.01 1470.33 L1176.2 1470.3 Z" fill="#000000" fill-rule="nonzero" fill-opacity="1" /><path clip-path="url(#clip500)" d="M1203.97 1460.42 L1203.97 1464.45 Q1202.17 1463.52 1200.22 1463.06 Q1198.28 1462.59 1196.2 1462.59 Q1193.02 1462.59 1191.43 1463.57 Q1189.85 1464.54 1189.85 1466.48 Q1189.85 1467.96 1190.99 1468.82 Q1192.12 1469.65 1195.55 1470.42 L1197.01 1470.74 Q1201.54 1471.71 1203.44 1473.5 Q1205.36 1475.26 1205.36 1478.43 Q1205.36 1482.04 1202.49 1484.14 Q1199.64 1486.25 1194.64 1486.25 Q1192.56 1486.25 1190.29 1485.83 Q1188.05 1485.44 1185.55 1484.63 L1185.55 1480.23 Q1187.91 1481.46 1190.2 1482.08 Q1192.49 1482.69 1194.74 1482.69 Q1197.75 1482.69 1199.37 1481.67 Q1200.99 1480.63 1200.99 1478.75 Q1200.99 1477.02 1199.81 1476.09 Q1198.65 1475.16 1194.69 1474.31 L1193.21 1473.96 Q1189.25 1473.13 1187.49 1471.41 Q1185.73 1469.68 1185.73 1466.67 Q1185.73 1463.01 1188.33 1461.02 Q1190.92 1459.03 1195.69 1459.03 Q1198.05 1459.03 1200.13 1459.38 Q1202.21 1459.72 1203.97 1460.42 Z" fill="#000000" fill-rule="nonzero" fill-opacity="1" /><path clip-path="url(#clip500)" d="M1216.36 1452.29 L1216.36 1459.65 L1225.13 1459.65 L1225.13 1462.96 L1216.36 1462.96 L1216.36 1477.04 Q1216.36 1480.21 1217.21 1481.11 Q1218.09 1482.02 1220.76 1482.02 L1225.13 1482.02 L1225.13 1485.58 L1220.76 1485.58 Q1215.83 1485.58 1213.95 1483.75 Q1212.08 1481.9 1212.08 1477.04 L1212.08 1462.96 L1208.95 1462.96 L1208.95 1459.65 L1212.08 1459.65 L1212.08 1452.29 L1216.36 1452.29 Z" fill="#000000" fill-rule="nonzero" fill-opacity="1" /><path clip-path="url(#clip500)" d="M1230.73 1459.65 L1234.99 1459.65 L1234.99 1485.58 L1230.73 1485.58 L1230.73 1459.65 M1230.73 1449.56 L1234.99 1449.56 L1234.99 1454.96 L1230.73 1454.96 L1230.73 1449.56 Z" fill="#000000" fill-rule="nonzero" fill-opacity="1" /><path clip-path="url(#clip500)" d="M1264.09 1464.63 Q1265.69 1461.76 1267.91 1460.39 Q1270.13 1459.03 1273.14 1459.03 Q1277.19 1459.03 1279.39 1461.88 Q1281.59 1464.7 1281.59 1469.93 L1281.59 1485.58 L1277.31 1485.58 L1277.31 1470.07 Q1277.31 1466.34 1275.99 1464.54 Q1274.67 1462.73 1271.96 1462.73 Q1268.65 1462.73 1266.73 1464.93 Q1264.81 1467.13 1264.81 1470.93 L1264.81 1485.58 L1260.52 1485.58 L1260.52 1470.07 Q1260.52 1466.32 1259.2 1464.54 Q1257.89 1462.73 1255.13 1462.73 Q1251.87 1462.73 1249.95 1464.95 Q1248.02 1467.15 1248.02 1470.93 L1248.02 1485.58 L1243.74 1485.58 L1243.74 1459.65 L1248.02 1459.65 L1248.02 1463.68 Q1249.48 1461.3 1251.52 1460.16 Q1253.56 1459.03 1256.36 1459.03 Q1259.18 1459.03 1261.15 1460.46 Q1263.14 1461.9 1264.09 1464.63 Z" fill="#000000" fill-rule="nonzero" fill-opacity="1" /><path clip-path="url(#clip500)" d="M1301.87 1472.55 Q1296.7 1472.55 1294.71 1473.73 Q1292.72 1474.91 1292.72 1477.76 Q1292.72 1480.02 1294.2 1481.37 Q1295.71 1482.69 1298.28 1482.69 Q1301.82 1482.69 1303.95 1480.19 Q1306.1 1477.66 1306.1 1473.5 L1306.1 1472.55 L1301.87 1472.55 M1310.36 1470.79 L1310.36 1485.58 L1306.1 1485.58 L1306.1 1481.64 Q1304.64 1484.01 1302.47 1485.14 Q1300.29 1486.25 1297.14 1486.25 Q1293.16 1486.25 1290.8 1484.03 Q1288.46 1481.78 1288.46 1478.03 Q1288.46 1473.66 1291.38 1471.44 Q1294.32 1469.21 1300.13 1469.21 L1306.1 1469.21 L1306.1 1468.8 Q1306.1 1465.86 1304.16 1464.26 Q1302.24 1462.64 1298.74 1462.64 Q1296.52 1462.64 1294.41 1463.17 Q1292.31 1463.7 1290.36 1464.77 L1290.36 1460.83 Q1292.7 1459.93 1294.9 1459.49 Q1297.1 1459.03 1299.18 1459.03 Q1304.81 1459.03 1307.58 1461.95 Q1310.36 1464.86 1310.36 1470.79 Z" fill="#000000" fill-rule="nonzero" fill-opacity="1" /><path clip-path="url(#clip500)" d="M1323.35 1452.29 L1323.35 1459.65 L1332.12 1459.65 L1332.12 1462.96 L1323.35 1462.96 L1323.35 1477.04 Q1323.35 1480.21 1324.2 1481.11 Q1325.08 1482.02 1327.75 1482.02 L1332.12 1482.02 L1332.12 1485.58 L1327.75 1485.58 Q1322.82 1485.58 1320.94 1483.75 Q1319.07 1481.9 1319.07 1477.04 L1319.07 1462.96 L1315.94 1462.96 L1315.94 1459.65 L1319.07 1459.65 L1319.07 1452.29 L1323.35 1452.29 Z" fill="#000000" fill-rule="nonzero" fill-opacity="1" /><path clip-path="url(#clip500)" d="M1337.72 1459.65 L1341.98 1459.65 L1341.98 1485.58 L1337.72 1485.58 L1337.72 1459.65 M1337.72 1449.56 L1341.98 1449.56 L1341.98 1454.96 L1337.72 1454.96 L1337.72 1449.56 Z" fill="#000000" fill-rule="nonzero" fill-opacity="1" /><path clip-path="url(#clip500)" d="M1360.94 1462.64 Q1357.51 1462.64 1355.52 1465.33 Q1353.53 1467.99 1353.53 1472.64 Q1353.53 1477.29 1355.5 1479.98 Q1357.49 1482.64 1360.94 1482.64 Q1364.34 1482.64 1366.33 1479.95 Q1368.32 1477.27 1368.32 1472.64 Q1368.32 1468.03 1366.33 1465.35 Q1364.34 1462.64 1360.94 1462.64 M1360.94 1459.03 Q1366.5 1459.03 1369.67 1462.64 Q1372.84 1466.25 1372.84 1472.64 Q1372.84 1479.01 1369.67 1482.64 Q1366.5 1486.25 1360.94 1486.25 Q1355.36 1486.25 1352.19 1482.64 Q1349.04 1479.01 1349.04 1472.64 Q1349.04 1466.25 1352.19 1462.64 Q1355.36 1459.03 1360.94 1459.03 Z" fill="#000000" fill-rule="nonzero" fill-opacity="1" /><path clip-path="url(#clip500)" d="M1401.45 1469.93 L1401.45 1485.58 L1397.19 1485.58 L1397.19 1470.07 Q1397.19 1466.39 1395.75 1464.56 Q1394.32 1462.73 1391.45 1462.73 Q1388 1462.73 1386.01 1464.93 Q1384.02 1467.13 1384.02 1470.93 L1384.02 1485.58 L1379.74 1485.58 L1379.74 1459.65 L1384.02 1459.65 L1384.02 1463.68 Q1385.55 1461.34 1387.61 1460.19 Q1389.69 1459.03 1392.4 1459.03 Q1396.87 1459.03 1399.16 1461.81 Q1401.45 1464.56 1401.45 1469.93 Z" fill="#000000" fill-rule="nonzero" fill-opacity="1" /><path clip-path="url(#clip500)" d="M1630.64 1451.02 L1652.49 1451.02 L1652.49 1454.96 L1635.32 1454.96 L1635.32 1465.19 L1651.77 1465.19 L1651.77 1469.12 L1635.32 1469.12 L1635.32 1481.64 L1652.91 1481.64 L1652.91 1485.58 L1630.64 1485.58 L1630.64 1451.02 Z" fill="#000000" fill-rule="nonzero" fill-opacity="1" /><path clip-path="url(#clip500)" d="M1665.27 1454.86 L1665.27 1481.74 L1670.92 1481.74 Q1678.07 1481.74 1681.38 1478.5 Q1684.71 1475.26 1684.71 1468.27 Q1684.71 1461.32 1681.38 1458.1 Q1678.07 1454.86 1670.92 1454.86 L1665.27 1454.86 M1660.59 1451.02 L1670.2 1451.02 Q1680.25 1451.02 1684.95 1455.21 Q1689.64 1459.38 1689.64 1468.27 Q1689.64 1477.2 1684.92 1481.39 Q1680.2 1485.58 1670.2 1485.58 L1660.59 1485.58 L1660.59 1451.02 Z" fill="#000000" fill-rule="nonzero" fill-opacity="1" /><path clip-path="url(#clip500)" d="M1707.82 1455.63 L1701.47 1472.83 L1714.18 1472.83 L1707.82 1455.63 M1705.18 1451.02 L1710.48 1451.02 L1723.65 1485.58 L1718.79 1485.58 L1715.64 1476.71 L1700.06 1476.71 L1696.91 1485.58 L1691.98 1485.58 L1705.18 1451.02 Z" fill="#000000" fill-rule="nonzero" fill-opacity="1" /><path clip-path="url(#clip500)" d="M1992.56 1481.69 L1992.56 1495.44 L1988.28 1495.44 L1988.28 1459.65 L1992.56 1459.65 L1992.56 1463.59 Q1993.9 1461.27 1995.94 1460.16 Q1998 1459.03 2000.85 1459.03 Q2005.57 1459.03 2008.51 1462.78 Q2011.47 1466.53 2011.47 1472.64 Q2011.47 1478.75 2008.51 1482.5 Q2005.57 1486.25 2000.85 1486.25 Q1998 1486.25 1995.94 1485.14 Q1993.9 1484.01 1992.56 1481.69 M2007.05 1472.64 Q2007.05 1467.94 2005.11 1465.28 Q2003.19 1462.59 1999.81 1462.59 Q1996.43 1462.59 1994.48 1465.28 Q1992.56 1467.94 1992.56 1472.64 Q1992.56 1477.34 1994.48 1480.02 Q1996.43 1482.69 1999.81 1482.69 Q2003.19 1482.69 2005.11 1480.02 Q2007.05 1477.34 2007.05 1472.64 Z" fill="#000000" fill-rule="nonzero" fill-opacity="1" /><path clip-path="url(#clip500)" d="M2018.53 1449.56 L2022.79 1449.56 L2022.79 1485.58 L2018.53 1485.58 L2018.53 1449.56 Z" fill="#000000" fill-rule="nonzero" fill-opacity="1" /><path clip-path="url(#clip500)" d="M2041.75 1462.64 Q2038.32 1462.64 2036.33 1465.33 Q2034.34 1467.99 2034.34 1472.64 Q2034.34 1477.29 2036.31 1479.98 Q2038.3 1482.64 2041.75 1482.64 Q2045.15 1482.64 2047.14 1479.95 Q2049.13 1477.27 2049.13 1472.64 Q2049.13 1468.03 2047.14 1465.35 Q2045.15 1462.64 2041.75 1462.64 M2041.75 1459.03 Q2047.31 1459.03 2050.48 1462.64 Q2053.65 1466.25 2053.65 1472.64 Q2053.65 1479.01 2050.48 1482.64 Q2047.31 1486.25 2041.75 1486.25 Q2036.17 1486.25 2033 1482.64 Q2029.85 1479.01 2029.85 1472.64 Q2029.85 1466.25 2033 1462.64 Q2036.17 1459.03 2041.75 1459.03 Z" fill="#000000" fill-rule="nonzero" fill-opacity="1" /><path clip-path="url(#clip500)" d="M2064.92 1452.29 L2064.92 1459.65 L2073.69 1459.65 L2073.69 1462.96 L2064.92 1462.96 L2064.92 1477.04 Q2064.92 1480.21 2065.78 1481.11 Q2066.66 1482.02 2069.32 1482.02 L2073.69 1482.02 L2073.69 1485.58 L2069.32 1485.58 Q2064.39 1485.58 2062.51 1483.75 Q2060.64 1481.9 2060.64 1477.04 L2060.64 1462.96 L2057.51 1462.96 L2057.51 1459.65 L2060.64 1459.65 L2060.64 1452.29 L2064.92 1452.29 Z" fill="#000000" fill-rule="nonzero" fill-opacity="1" /><path clip-path="url(#clip500)" d="M2083.51 1452.29 L2083.51 1459.65 L2092.28 1459.65 L2092.28 1462.96 L2083.51 1462.96 L2083.51 1477.04 Q2083.51 1480.21 2084.37 1481.11 Q2085.25 1482.02 2087.91 1482.02 L2092.28 1482.02 L2092.28 1485.58 L2087.91 1485.58 Q2082.98 1485.58 2081.1 1483.75 Q2079.23 1481.9 2079.23 1477.04 L2079.23 1462.96 L2076.1 1462.96 L2076.1 1459.65 L2079.23 1459.65 L2079.23 1452.29 L2083.51 1452.29 Z" fill="#000000" fill-rule="nonzero" fill-opacity="1" /><path clip-path="url(#clip500)" d="M2097.88 1459.65 L2102.14 1459.65 L2102.14 1485.58 L2097.88 1485.58 L2097.88 1459.65 M2097.88 1449.56 L2102.14 1449.56 L2102.14 1454.96 L2097.88 1454.96 L2097.88 1449.56 Z" fill="#000000" fill-rule="nonzero" fill-opacity="1" /><path clip-path="url(#clip500)" d="M2132.61 1469.93 L2132.61 1485.58 L2128.35 1485.58 L2128.35 1470.07 Q2128.35 1466.39 2126.91 1464.56 Q2125.48 1462.73 2122.61 1462.73 Q2119.16 1462.73 2117.17 1464.93 Q2115.18 1467.13 2115.18 1470.93 L2115.18 1485.58 L2110.89 1485.58 L2110.89 1459.65 L2115.18 1459.65 L2115.18 1463.68 Q2116.7 1461.34 2118.76 1460.19 Q2120.85 1459.03 2123.56 1459.03 Q2128.02 1459.03 2130.31 1461.81 Q2132.61 1464.56 2132.61 1469.93 Z" fill="#000000" fill-rule="nonzero" fill-opacity="1" /><path clip-path="url(#clip500)" d="M2158.16 1472.32 Q2158.16 1467.69 2156.24 1465.14 Q2154.34 1462.59 2150.89 1462.59 Q2147.47 1462.59 2145.55 1465.14 Q2143.65 1467.69 2143.65 1472.32 Q2143.65 1476.92 2145.55 1479.47 Q2147.47 1482.02 2150.89 1482.02 Q2154.34 1482.02 2156.24 1479.47 Q2158.16 1476.92 2158.16 1472.32 M2162.42 1482.36 Q2162.42 1488.98 2159.48 1492.2 Q2156.54 1495.44 2150.48 1495.44 Q2148.23 1495.44 2146.24 1495.09 Q2144.25 1494.77 2142.37 1494.08 L2142.37 1489.93 Q2144.25 1490.95 2146.08 1491.44 Q2147.91 1491.92 2149.81 1491.92 Q2154 1491.92 2156.08 1489.72 Q2158.16 1487.55 2158.16 1483.13 L2158.16 1481.02 Q2156.84 1483.31 2154.78 1484.45 Q2152.72 1485.58 2149.85 1485.58 Q2145.08 1485.58 2142.17 1481.95 Q2139.25 1478.31 2139.25 1472.32 Q2139.25 1466.3 2142.17 1462.66 Q2145.08 1459.03 2149.85 1459.03 Q2152.72 1459.03 2154.78 1460.16 Q2156.84 1461.3 2158.16 1463.59 L2158.16 1459.65 L2162.42 1459.65 L2162.42 1482.36 Z" fill="#000000" fill-rule="nonzero" fill-opacity="1" /><path clip-path="url(#clip500)" d="M1047.7 1533.76 L1047.7 1539.24 Q1045.22 1537.87 1042.71 1537.2 Q1040.22 1536.5 1037.68 1536.5 Q1031.98 1536.5 1028.83 1540.13 Q1025.68 1543.73 1025.68 1550.25 Q1025.68 1556.78 1028.83 1560.4 Q1031.98 1564 1037.68 1564 Q1040.22 1564 1042.71 1563.33 Q1045.22 1562.63 1047.7 1561.26 L1047.7 1566.68 Q1045.25 1567.82 1042.61 1568.39 Q1040 1568.97 1037.04 1568.97 Q1028.99 1568.97 1024.25 1563.91 Q1019.5 1558.85 1019.5 1550.25 Q1019.5 1541.53 1024.28 1536.53 Q1029.08 1531.54 1037.42 1531.54 Q1040.13 1531.54 1042.71 1532.11 Q1045.29 1532.65 1047.7 1533.76 Z" fill="#000000" fill-rule="nonzero" fill-opacity="1" /><path clip-path="url(#clip500)" d="M1071.7 1536.5 Q1066.99 1536.5 1064.25 1540.19 Q1061.52 1543.85 1061.52 1550.25 Q1061.52 1556.65 1064.22 1560.34 Q1066.96 1564 1071.7 1564 Q1076.38 1564 1079.12 1560.31 Q1081.86 1556.62 1081.86 1550.25 Q1081.86 1543.92 1079.12 1540.23 Q1076.38 1536.5 1071.7 1536.5 M1071.7 1531.54 Q1079.34 1531.54 1083.7 1536.5 Q1088.06 1541.47 1088.06 1550.25 Q1088.06 1559 1083.7 1564 Q1079.34 1568.97 1071.7 1568.97 Q1064.03 1568.97 1059.67 1564 Q1055.34 1559 1055.34 1550.25 Q1055.34 1541.47 1059.67 1536.5 Q1064.03 1531.54 1071.7 1531.54 Z" fill="#000000" fill-rule="nonzero" fill-opacity="1" /><path clip-path="url(#clip500)" d="M1125.52 1539.24 Q1127.72 1535.29 1130.78 1533.41 Q1133.83 1531.54 1137.97 1531.54 Q1143.54 1531.54 1146.56 1535.45 Q1149.59 1539.33 1149.59 1546.53 L1149.59 1568.04 L1143.7 1568.04 L1143.7 1546.72 Q1143.7 1541.59 1141.88 1539.11 Q1140.07 1536.63 1136.35 1536.63 Q1131.8 1536.63 1129.15 1539.65 Q1126.51 1542.68 1126.51 1547.9 L1126.51 1568.04 L1120.62 1568.04 L1120.62 1546.72 Q1120.62 1541.56 1118.81 1539.11 Q1116.99 1536.63 1113.21 1536.63 Q1108.72 1536.63 1106.08 1539.68 Q1103.44 1542.71 1103.44 1547.9 L1103.44 1568.04 L1097.55 1568.04 L1097.55 1532.4 L1103.44 1532.4 L1103.44 1537.93 Q1105.44 1534.66 1108.24 1533.1 Q1111.04 1531.54 1114.89 1531.54 Q1118.78 1531.54 1121.48 1533.51 Q1124.22 1535.48 1125.52 1539.24 Z" fill="#000000" fill-rule="nonzero" fill-opacity="1" /><path clip-path="url(#clip500)" d="M1189.02 1539.24 Q1191.22 1535.29 1194.27 1533.41 Q1197.33 1531.54 1201.47 1531.54 Q1207.04 1531.54 1210.06 1535.45 Q1213.09 1539.33 1213.09 1546.53 L1213.09 1568.04 L1207.2 1568.04 L1207.2 1546.72 Q1207.2 1541.59 1205.38 1539.11 Q1203.57 1536.63 1199.84 1536.63 Q1195.29 1536.63 1192.65 1539.65 Q1190.01 1542.68 1190.01 1547.9 L1190.01 1568.04 L1184.12 1568.04 L1184.12 1546.72 Q1184.12 1541.56 1182.31 1539.11 Q1180.49 1536.63 1176.71 1536.63 Q1172.22 1536.63 1169.58 1539.68 Q1166.93 1542.71 1166.93 1547.9 L1166.93 1568.04 L1161.05 1568.04 L1161.05 1532.4 L1166.93 1532.4 L1166.93 1537.93 Q1168.94 1534.66 1171.74 1533.1 Q1174.54 1531.54 1178.39 1531.54 Q1182.28 1531.54 1184.98 1533.51 Q1187.72 1535.48 1189.02 1539.24 Z" fill="#000000" fill-rule="nonzero" fill-opacity="1" /><path clip-path="url(#clip500)" d="M1240.97 1550.12 Q1233.87 1550.12 1231.13 1551.75 Q1228.39 1553.37 1228.39 1557.29 Q1228.39 1560.4 1230.43 1562.25 Q1232.5 1564.07 1236.03 1564.07 Q1240.9 1564.07 1243.83 1560.63 Q1246.79 1557.16 1246.79 1551.43 L1246.79 1550.12 L1240.97 1550.12 M1252.65 1547.71 L1252.65 1568.04 L1246.79 1568.04 L1246.79 1562.63 Q1244.79 1565.88 1241.79 1567.44 Q1238.8 1568.97 1234.47 1568.97 Q1229 1568.97 1225.75 1565.91 Q1222.54 1562.82 1222.54 1557.67 Q1222.54 1551.65 1226.55 1548.6 Q1230.59 1545.54 1238.58 1545.54 L1246.79 1545.54 L1246.79 1544.97 Q1246.79 1540.93 1244.12 1538.73 Q1241.48 1536.5 1236.67 1536.5 Q1233.61 1536.5 1230.72 1537.23 Q1227.82 1537.97 1225.15 1539.43 L1225.15 1534.02 Q1228.36 1532.78 1231.39 1532.17 Q1234.41 1531.54 1237.27 1531.54 Q1245.01 1531.54 1248.83 1535.55 Q1252.65 1539.56 1252.65 1547.71 Z" fill="#000000" fill-rule="nonzero" fill-opacity="1" /><path clip-path="url(#clip500)" d="M1294.34 1546.53 L1294.34 1568.04 L1288.49 1568.04 L1288.49 1546.72 Q1288.49 1541.66 1286.51 1539.14 Q1284.54 1536.63 1280.59 1536.63 Q1275.85 1536.63 1273.11 1539.65 Q1270.38 1542.68 1270.38 1547.9 L1270.38 1568.04 L1264.49 1568.04 L1264.49 1532.4 L1270.38 1532.4 L1270.38 1537.93 Q1272.48 1534.72 1275.31 1533.13 Q1278.17 1531.54 1281.9 1531.54 Q1288.04 1531.54 1291.19 1535.36 Q1294.34 1539.14 1294.34 1546.53 Z" fill="#000000" fill-rule="nonzero" fill-opacity="1" /><path clip-path="url(#clip500)" d="M1329.48 1537.81 L1329.48 1518.52 L1335.34 1518.52 L1335.34 1568.04 L1329.48 1568.04 L1329.48 1562.7 Q1327.64 1565.88 1324.8 1567.44 Q1322 1568.97 1318.06 1568.97 Q1311.59 1568.97 1307.52 1563.81 Q1303.48 1558.65 1303.48 1550.25 Q1303.48 1541.85 1307.52 1536.69 Q1311.59 1531.54 1318.06 1531.54 Q1322 1531.54 1324.8 1533.1 Q1327.64 1534.62 1329.48 1537.81 M1309.53 1550.25 Q1309.53 1556.71 1312.17 1560.4 Q1314.84 1564.07 1319.49 1564.07 Q1324.13 1564.07 1326.81 1560.4 Q1329.48 1556.71 1329.48 1550.25 Q1329.48 1543.79 1326.81 1540.13 Q1324.13 1536.44 1319.49 1536.44 Q1314.84 1536.44 1312.17 1540.13 Q1309.53 1543.79 1309.53 1550.25 Z" fill="#000000" fill-rule="nonzero" fill-opacity="1" /><path clip-path="url(#clip500)" d="M1373.91 1522.27 L1373.91 1532.4 L1385.98 1532.4 L1385.98 1536.95 L1373.91 1536.95 L1373.91 1556.3 Q1373.91 1560.66 1375.09 1561.9 Q1376.3 1563.14 1379.96 1563.14 L1385.98 1563.14 L1385.98 1568.04 L1379.96 1568.04 Q1373.18 1568.04 1370.6 1565.53 Q1368.03 1562.98 1368.03 1556.3 L1368.03 1536.95 L1363.73 1536.95 L1363.73 1532.4 L1368.03 1532.4 L1368.03 1522.27 L1373.91 1522.27 Z" fill="#000000" fill-rule="nonzero" fill-opacity="1" /><path clip-path="url(#clip500)" d="M1408.51 1571.35 Q1406.03 1577.72 1403.67 1579.66 Q1401.32 1581.6 1397.37 1581.6 L1392.69 1581.6 L1392.69 1576.7 L1396.13 1576.7 Q1398.55 1576.7 1399.89 1575.56 Q1401.22 1574.41 1402.85 1570.14 L1403.9 1567.47 L1389.48 1532.4 L1395.69 1532.4 L1406.83 1560.28 L1417.97 1532.4 L1424.17 1532.4 L1408.51 1571.35 Z" fill="#000000" fill-rule="nonzero" fill-opacity="1" /><path clip-path="url(#clip500)" d="M1437.92 1562.7 L1437.92 1581.6 L1432.03 1581.6 L1432.03 1532.4 L1437.92 1532.4 L1437.92 1537.81 Q1439.77 1534.62 1442.57 1533.1 Q1445.4 1531.54 1449.32 1531.54 Q1455.81 1531.54 1459.85 1536.69 Q1463.93 1541.85 1463.93 1550.25 Q1463.93 1558.65 1459.85 1563.81 Q1455.81 1568.97 1449.32 1568.97 Q1445.4 1568.97 1442.57 1567.44 Q1439.77 1565.88 1437.92 1562.7 M1457.85 1550.25 Q1457.85 1543.79 1455.17 1540.13 Q1452.53 1536.44 1447.88 1536.44 Q1443.24 1536.44 1440.56 1540.13 Q1437.92 1543.79 1437.92 1550.25 Q1437.92 1556.71 1440.56 1560.4 Q1443.24 1564.07 1447.88 1564.07 Q1452.53 1564.07 1455.17 1560.4 Q1457.85 1556.71 1457.85 1550.25 Z" fill="#000000" fill-rule="nonzero" fill-opacity="1" /><path clip-path="url(#clip500)" d="M1504.13 1548.76 L1504.13 1551.62 L1477.2 1551.62 Q1477.58 1557.67 1480.83 1560.85 Q1484.11 1564 1489.93 1564 Q1493.3 1564 1496.45 1563.17 Q1499.64 1562.35 1502.76 1560.69 L1502.76 1566.23 Q1499.61 1567.57 1496.3 1568.27 Q1492.99 1568.97 1489.58 1568.97 Q1481.05 1568.97 1476.05 1564 Q1471.09 1559.04 1471.09 1550.57 Q1471.09 1541.82 1475.8 1536.69 Q1480.54 1531.54 1488.56 1531.54 Q1495.75 1531.54 1499.92 1536.18 Q1504.13 1540.8 1504.13 1548.76 M1498.27 1547.04 Q1498.21 1542.23 1495.56 1539.37 Q1492.95 1536.5 1488.62 1536.5 Q1483.72 1536.5 1480.76 1539.27 Q1477.83 1542.04 1477.39 1547.07 L1498.27 1547.04 Z" fill="#000000" fill-rule="nonzero" fill-opacity="1" /><path clip-path="url(#clip500)" d="M1536.46 1533.45 L1536.46 1538.98 Q1533.98 1537.71 1531.31 1537.07 Q1528.63 1536.44 1525.77 1536.44 Q1521.41 1536.44 1519.21 1537.77 Q1517.05 1539.11 1517.05 1541.79 Q1517.05 1543.82 1518.61 1545 Q1520.17 1546.15 1524.88 1547.2 L1526.88 1547.64 Q1533.12 1548.98 1535.73 1551.43 Q1538.37 1553.85 1538.37 1558.21 Q1538.37 1563.17 1534.43 1566.07 Q1530.51 1568.97 1523.64 1568.97 Q1520.77 1568.97 1517.65 1568.39 Q1514.57 1567.85 1511.13 1566.74 L1511.13 1560.69 Q1514.37 1562.38 1517.53 1563.24 Q1520.68 1564.07 1523.76 1564.07 Q1527.9 1564.07 1530.13 1562.66 Q1532.36 1561.23 1532.36 1558.65 Q1532.36 1556.27 1530.73 1554.99 Q1529.14 1553.72 1523.7 1552.54 L1521.66 1552.07 Q1516.22 1550.92 1513.8 1548.56 Q1511.38 1546.18 1511.38 1542.04 Q1511.38 1537.01 1514.95 1534.27 Q1518.51 1531.54 1525.07 1531.54 Q1528.31 1531.54 1531.18 1532.01 Q1534.04 1532.49 1536.46 1533.45 Z" fill="#000000" fill-rule="nonzero" fill-opacity="1" /><polyline clip-path="url(#clip502)" style="stroke:#000000; stroke-linecap:round; stroke-linejoin:round; stroke-width:2; stroke-opacity:0.1; fill:none" points="205.121,1423.18 2352.76,1423.18 "/>
<polyline clip-path="url(#clip502)" style="stroke:#000000; stroke-linecap:round; stroke-linejoin:round; stroke-width:2; stroke-opacity:0.1; fill:none" points="205.121,1220.84 2352.76,1220.84 "/>
<polyline clip-path="url(#clip502)" style="stroke:#000000; stroke-linecap:round; stroke-linejoin:round; stroke-width:2; stroke-opacity:0.1; fill:none" points="205.121,1018.49 2352.76,1018.49 "/>
<polyline clip-path="url(#clip502)" style="stroke:#000000; stroke-linecap:round; stroke-linejoin:round; stroke-width:2; stroke-opacity:0.1; fill:none" points="205.121,816.149 2352.76,816.149 "/>
<polyline clip-path="url(#clip502)" style="stroke:#000000; stroke-linecap:round; stroke-linejoin:round; stroke-width:2; stroke-opacity:0.1; fill:none" points="205.121,613.806 2352.76,613.806 "/>
<polyline clip-path="url(#clip502)" style="stroke:#000000; stroke-linecap:round; stroke-linejoin:round; stroke-width:2; stroke-opacity:0.1; fill:none" points="205.121,411.462 2352.76,411.462 "/>
<polyline clip-path="url(#clip502)" style="stroke:#000000; stroke-linecap:round; stroke-linejoin:round; stroke-width:2; stroke-opacity:0.1; fill:none" points="205.121,209.119 2352.76,209.119 "/>
<polyline clip-path="url(#clip500)" style="stroke:#000000; stroke-linecap:round; stroke-linejoin:round; stroke-width:4; stroke-opacity:1; fill:none" points="205.121,1423.18 205.121,47.2441 "/>
<polyline clip-path="url(#clip500)" style="stroke:#000000; stroke-linecap:round; stroke-linejoin:round; stroke-width:4; stroke-opacity:1; fill:none" points="205.121,1423.18 224.019,1423.18 "/>
<polyline clip-path="url(#clip500)" style="stroke:#000000; stroke-linecap:round; stroke-linejoin:round; stroke-width:4; stroke-opacity:1; fill:none" points="205.121,1220.84 224.019,1220.84 "/>
<polyline clip-path="url(#clip500)" style="stroke:#000000; stroke-linecap:round; stroke-linejoin:round; stroke-width:4; stroke-opacity:1; fill:none" points="205.121,1018.49 224.019,1018.49 "/>
<polyline clip-path="url(#clip500)" style="stroke:#000000; stroke-linecap:round; stroke-linejoin:round; stroke-width:4; stroke-opacity:1; fill:none" points="205.121,816.149 224.019,816.149 "/>
<polyline clip-path="url(#clip500)" style="stroke:#000000; stroke-linecap:round; stroke-linejoin:round; stroke-width:4; stroke-opacity:1; fill:none" points="205.121,613.806 224.019,613.806 "/>
<polyline clip-path="url(#clip500)" style="stroke:#000000; stroke-linecap:round; stroke-linejoin:round; stroke-width:4; stroke-opacity:1; fill:none" points="205.121,411.462 224.019,411.462 "/>
<polyline clip-path="url(#clip500)" style="stroke:#000000; stroke-linecap:round; stroke-linejoin:round; stroke-width:4; stroke-opacity:1; fill:none" points="205.121,209.119 224.019,209.119 "/>
<path clip-path="url(#clip500)" d="M157.177 1408.98 Q153.566 1408.98 151.737 1412.54 Q149.931 1416.08 149.931 1423.21 Q149.931 1430.32 151.737 1433.89 Q153.566 1437.43 157.177 1437.43 Q160.811 1437.43 162.616 1433.89 Q164.445 1430.32 164.445 1423.21 Q164.445 1416.08 162.616 1412.54 Q160.811 1408.98 157.177 1408.98 M157.177 1405.27 Q162.987 1405.27 166.042 1409.88 Q169.121 1414.46 169.121 1423.21 Q169.121 1431.94 166.042 1436.55 Q162.987 1441.13 157.177 1441.13 Q151.366 1441.13 148.288 1436.55 Q145.232 1431.94 145.232 1423.21 Q145.232 1414.46 148.288 1409.88 Q151.366 1405.27 157.177 1405.27 Z" fill="#000000" fill-rule="nonzero" fill-opacity="1" /><path clip-path="url(#clip500)" d="M117.825 1234.18 L125.464 1234.18 L125.464 1207.82 L117.154 1209.48 L117.154 1205.22 L125.418 1203.56 L130.093 1203.56 L130.093 1234.18 L137.732 1234.18 L137.732 1238.12 L117.825 1238.12 L117.825 1234.18 Z" fill="#000000" fill-rule="nonzero" fill-opacity="1" /><path clip-path="url(#clip500)" d="M157.177 1206.64 Q153.566 1206.64 151.737 1210.2 Q149.931 1213.74 149.931 1220.87 Q149.931 1227.98 151.737 1231.54 Q153.566 1235.08 157.177 1235.08 Q160.811 1235.08 162.616 1231.54 Q164.445 1227.98 164.445 1220.87 Q164.445 1213.74 162.616 1210.2 Q160.811 1206.64 157.177 1206.64 M157.177 1202.93 Q162.987 1202.93 166.042 1207.54 Q169.121 1212.12 169.121 1220.87 Q169.121 1229.6 166.042 1234.2 Q162.987 1238.79 157.177 1238.79 Q151.366 1238.79 148.288 1234.2 Q145.232 1229.6 145.232 1220.87 Q145.232 1212.12 148.288 1207.54 Q151.366 1202.93 157.177 1202.93 Z" fill="#000000" fill-rule="nonzero" fill-opacity="1" /><path clip-path="url(#clip500)" d="M121.043 1031.84 L137.362 1031.84 L137.362 1035.77 L115.418 1035.77 L115.418 1031.84 Q118.08 1029.08 122.663 1024.45 Q127.269 1019.8 128.45 1018.46 Q130.695 1015.94 131.575 1014.2 Q132.478 1012.44 132.478 1010.75 Q132.478 1008 130.533 1006.26 Q128.612 1004.52 125.51 1004.52 Q123.311 1004.52 120.857 1005.29 Q118.427 1006.05 115.649 1007.6 L115.649 1002.88 Q118.473 1001.75 120.927 1001.17 Q123.38 1000.59 125.418 1000.59 Q130.788 1000.59 133.982 1003.27 Q137.177 1005.96 137.177 1010.45 Q137.177 1012.58 136.367 1014.5 Q135.579 1016.4 133.473 1018.99 Q132.894 1019.66 129.792 1022.88 Q126.691 1026.07 121.043 1031.84 Z" fill="#000000" fill-rule="nonzero" fill-opacity="1" /><path clip-path="url(#clip500)" d="M157.177 1004.29 Q153.566 1004.29 151.737 1007.86 Q149.931 1011.4 149.931 1018.53 Q149.931 1025.63 151.737 1029.2 Q153.566 1032.74 157.177 1032.74 Q160.811 1032.74 162.616 1029.2 Q164.445 1025.63 164.445 1018.53 Q164.445 1011.4 162.616 1007.86 Q160.811 1004.29 157.177 1004.29 M157.177 1000.59 Q162.987 1000.59 166.042 1005.19 Q169.121 1009.78 169.121 1018.53 Q169.121 1027.25 166.042 1031.86 Q162.987 1036.44 157.177 1036.44 Q151.366 1036.44 148.288 1031.86 Q145.232 1027.25 145.232 1018.53 Q145.232 1009.78 148.288 1005.19 Q151.366 1000.59 157.177 1000.59 Z" fill="#000000" fill-rule="nonzero" fill-opacity="1" /><path clip-path="url(#clip500)" d="M131.181 814.795 Q134.538 815.513 136.413 817.781 Q138.311 820.05 138.311 823.383 Q138.311 828.499 134.792 831.3 Q131.274 834.101 124.793 834.101 Q122.617 834.101 120.302 833.661 Q118.01 833.244 115.556 832.388 L115.556 827.874 Q117.501 829.008 119.816 829.587 Q122.13 830.165 124.654 830.165 Q129.052 830.165 131.343 828.429 Q133.658 826.693 133.658 823.383 Q133.658 820.328 131.505 818.615 Q129.376 816.879 125.556 816.879 L121.529 816.879 L121.529 813.036 L125.742 813.036 Q129.191 813.036 131.019 811.67 Q132.848 810.281 132.848 807.689 Q132.848 805.027 130.95 803.615 Q129.075 802.18 125.556 802.18 Q123.635 802.18 121.436 802.596 Q119.237 803.013 116.598 803.892 L116.598 799.726 Q119.26 798.985 121.575 798.615 Q123.913 798.244 125.973 798.244 Q131.297 798.244 134.399 800.675 Q137.501 803.082 137.501 807.203 Q137.501 810.073 135.857 812.064 Q134.214 814.031 131.181 814.795 Z" fill="#000000" fill-rule="nonzero" fill-opacity="1" /><path clip-path="url(#clip500)" d="M157.177 801.948 Q153.566 801.948 151.737 805.513 Q149.931 809.054 149.931 816.184 Q149.931 823.291 151.737 826.855 Q153.566 830.397 157.177 830.397 Q160.811 830.397 162.616 826.855 Q164.445 823.291 164.445 816.184 Q164.445 809.054 162.616 805.513 Q160.811 801.948 157.177 801.948 M157.177 798.244 Q162.987 798.244 166.042 802.851 Q169.121 807.434 169.121 816.184 Q169.121 824.911 166.042 829.517 Q162.987 834.101 157.177 834.101 Q151.366 834.101 148.288 829.517 Q145.232 824.911 145.232 816.184 Q145.232 807.434 148.288 802.851 Q151.366 798.244 157.177 798.244 Z" fill="#000000" fill-rule="nonzero" fill-opacity="1" /><path clip-path="url(#clip500)" d="M129.862 600.6 L118.056 619.049 L129.862 619.049 L129.862 600.6 M128.635 596.526 L134.515 596.526 L134.515 619.049 L139.445 619.049 L139.445 622.938 L134.515 622.938 L134.515 631.086 L129.862 631.086 L129.862 622.938 L114.26 622.938 L114.26 618.424 L128.635 596.526 Z" fill="#000000" fill-rule="nonzero" fill-opacity="1" /><path clip-path="url(#clip500)" d="M157.177 599.605 Q153.566 599.605 151.737 603.169 Q149.931 606.711 149.931 613.841 Q149.931 620.947 151.737 624.512 Q153.566 628.053 157.177 628.053 Q160.811 628.053 162.616 624.512 Q164.445 620.947 164.445 613.841 Q164.445 606.711 162.616 603.169 Q160.811 599.605 157.177 599.605 M157.177 595.901 Q162.987 595.901 166.042 600.507 Q169.121 605.091 169.121 613.841 Q169.121 622.567 166.042 627.174 Q162.987 631.757 157.177 631.757 Q151.366 631.757 148.288 627.174 Q145.232 622.567 145.232 613.841 Q145.232 605.091 148.288 600.507 Q151.366 595.901 157.177 595.901 Z" fill="#000000" fill-rule="nonzero" fill-opacity="1" /><path clip-path="url(#clip500)" d="M117.061 394.182 L135.417 394.182 L135.417 398.118 L121.343 398.118 L121.343 406.59 Q122.362 406.243 123.38 406.08 Q124.399 405.895 125.418 405.895 Q131.205 405.895 134.584 409.067 Q137.964 412.238 137.964 417.654 Q137.964 423.233 134.492 426.335 Q131.019 429.414 124.7 429.414 Q122.524 429.414 120.255 429.043 Q118.01 428.673 115.603 427.932 L115.603 423.233 Q117.686 424.367 119.908 424.923 Q122.13 425.479 124.607 425.479 Q128.612 425.479 130.95 423.372 Q133.288 421.266 133.288 417.654 Q133.288 414.043 130.95 411.937 Q128.612 409.83 124.607 409.83 Q122.732 409.83 120.857 410.247 Q119.006 410.664 117.061 411.543 L117.061 394.182 Z" fill="#000000" fill-rule="nonzero" fill-opacity="1" /><path clip-path="url(#clip500)" d="M157.177 397.261 Q153.566 397.261 151.737 400.826 Q149.931 404.368 149.931 411.497 Q149.931 418.604 151.737 422.168 Q153.566 425.71 157.177 425.71 Q160.811 425.71 162.616 422.168 Q164.445 418.604 164.445 411.497 Q164.445 404.368 162.616 400.826 Q160.811 397.261 157.177 397.261 M157.177 393.557 Q162.987 393.557 166.042 398.164 Q169.121 402.747 169.121 411.497 Q169.121 420.224 166.042 424.83 Q162.987 429.414 157.177 429.414 Q151.366 429.414 148.288 424.83 Q145.232 420.224 145.232 411.497 Q145.232 402.747 148.288 398.164 Q151.366 393.557 157.177 393.557 Z" fill="#000000" fill-rule="nonzero" fill-opacity="1" /><path clip-path="url(#clip500)" d="M127.593 207.255 Q124.445 207.255 122.593 209.408 Q120.765 211.561 120.765 215.311 Q120.765 219.038 122.593 221.214 Q124.445 223.366 127.593 223.366 Q130.742 223.366 132.57 221.214 Q134.422 219.038 134.422 215.311 Q134.422 211.561 132.57 209.408 Q130.742 207.255 127.593 207.255 M136.876 192.603 L136.876 196.862 Q135.117 196.029 133.311 195.589 Q131.529 195.149 129.769 195.149 Q125.14 195.149 122.686 198.274 Q120.255 201.399 119.908 207.718 Q121.274 205.705 123.334 204.64 Q125.394 203.552 127.871 203.552 Q133.08 203.552 136.089 206.723 Q139.121 209.871 139.121 215.311 Q139.121 220.635 135.973 223.853 Q132.825 227.07 127.593 227.07 Q121.598 227.07 118.427 222.487 Q115.256 217.88 115.256 209.154 Q115.256 200.959 119.144 196.098 Q123.033 191.214 129.584 191.214 Q131.343 191.214 133.126 191.561 Q134.931 191.908 136.876 192.603 Z" fill="#000000" fill-rule="nonzero" fill-opacity="1" /><path clip-path="url(#clip500)" d="M157.177 194.918 Q153.566 194.918 151.737 198.482 Q149.931 202.024 149.931 209.154 Q149.931 216.26 151.737 219.825 Q153.566 223.366 157.177 223.366 Q160.811 223.366 162.616 219.825 Q164.445 216.26 164.445 209.154 Q164.445 202.024 162.616 198.482 Q160.811 194.918 157.177 194.918 M157.177 191.214 Q162.987 191.214 166.042 195.82 Q169.121 200.404 169.121 209.154 Q169.121 217.88 166.042 222.487 Q162.987 227.07 157.177 227.07 Q151.366 227.07 148.288 222.487 Q145.232 217.88 145.232 209.154 Q145.232 200.404 148.288 195.82 Q151.366 191.214 157.177 191.214 Z" fill="#000000" fill-rule="nonzero" fill-opacity="1" /><path clip-path="url(#clip500)" d="M43.0928 894.816 Q43.0928 897.585 45.4481 899.177 Q47.8034 900.736 52.0048 900.736 Q56.1425 900.736 58.5296 899.177 Q60.885 897.585 60.885 894.816 Q60.885 892.111 58.5296 890.551 Q56.1425 888.96 52.0048 888.96 Q47.8353 888.96 45.48 890.551 Q43.0928 892.111 43.0928 894.816 M39.0506 894.816 Q39.0506 889.787 42.5517 886.827 Q46.0529 883.867 52.0048 883.867 Q57.9567 883.867 61.4579 886.859 Q64.9272 889.819 64.9272 894.816 Q64.9272 899.909 61.4579 902.869 Q57.9567 905.829 52.0048 905.829 Q46.021 905.829 42.5517 902.869 Q39.0506 899.877 39.0506 894.816 M19.667 927.663 Q19.667 930.4 22.0542 931.992 Q24.4095 933.551 28.5472 933.551 Q32.7485 933.551 35.1038 931.992 Q37.4592 930.432 37.4592 927.663 Q37.4592 924.894 35.1038 923.335 Q32.7485 921.743 28.5472 921.743 Q24.4413 921.743 22.0542 923.335 Q19.667 924.926 19.667 927.663 M15.6248 898.922 L15.6248 893.829 L64.9272 923.557 L64.9272 928.65 L15.6248 898.922 M15.6248 927.663 Q15.6248 922.634 19.1259 919.642 Q22.5952 916.651 28.5472 916.651 Q34.5628 916.651 38.0321 919.642 Q41.5014 922.602 41.5014 927.663 Q41.5014 932.724 38.0321 935.684 Q34.5309 938.612 28.5472 938.612 Q22.6271 938.612 19.1259 935.652 Q15.6248 932.692 15.6248 927.663 Z" fill="#000000" fill-rule="nonzero" fill-opacity="1" /><path clip-path="url(#clip500)" d="M32.4621 839.594 Q32.4621 844.304 36.1542 847.042 Q39.8145 849.779 46.212 849.779 Q52.6095 849.779 56.3017 847.073 Q59.9619 844.336 59.9619 839.594 Q59.9619 834.915 56.2698 832.178 Q52.5777 829.44 46.212 829.44 Q39.8781 829.44 36.186 832.178 Q32.4621 834.915 32.4621 839.594 M27.4968 839.594 Q27.4968 831.955 32.4621 827.594 Q37.4273 823.234 46.212 823.234 Q54.9649 823.234 59.9619 827.594 Q64.9272 831.955 64.9272 839.594 Q64.9272 847.264 59.9619 851.625 Q54.9649 855.954 46.212 855.954 Q37.4273 855.954 32.4621 851.625 Q27.4968 847.264 27.4968 839.594 Z" fill="#000000" fill-rule="nonzero" fill-opacity="1" /><path clip-path="url(#clip500)" d="M14.479 795.479 L19.3487 795.479 L19.3487 801.081 Q19.3487 804.232 20.6219 805.473 Q21.895 806.683 25.2052 806.683 L28.3562 806.683 L28.3562 797.039 L32.9077 797.039 L32.9077 806.683 L64.0042 806.683 L64.0042 812.571 L32.9077 812.571 L32.9077 818.173 L28.3562 818.173 L28.3562 812.571 L25.8736 812.571 Q19.9216 812.571 17.2162 809.802 Q14.479 807.033 14.479 801.017 L14.479 795.479 Z" fill="#000000" fill-rule="nonzero" fill-opacity="1" /><path clip-path="url(#clip500)" d="M28.3562 769.857 L28.3562 764.001 L64.0042 764.001 L64.0042 769.857 L28.3562 769.857 M14.479 769.857 L14.479 764.001 L21.895 764.001 L21.895 769.857 L14.479 769.857 Z" fill="#000000" fill-rule="nonzero" fill-opacity="1" /><path clip-path="url(#clip500)" d="M42.4881 722.115 L64.0042 722.115 L64.0042 727.971 L42.679 727.971 Q37.6183 727.971 35.1038 729.944 Q32.5894 731.918 32.5894 735.864 Q32.5894 740.607 35.6131 743.344 Q38.6368 746.081 43.8567 746.081 L64.0042 746.081 L64.0042 751.97 L28.3562 751.97 L28.3562 746.081 L33.8944 746.081 Q30.6797 743.981 29.0883 741.148 Q27.4968 738.283 27.4968 734.559 Q27.4968 728.417 31.3163 725.266 Q35.1038 722.115 42.4881 722.115 Z" fill="#000000" fill-rule="nonzero" fill-opacity="1" /><path clip-path="url(#clip500)" d="M28.3562 714.635 L28.3562 708.428 L58.275 697.288 L28.3562 686.148 L28.3562 679.942 L64.0042 693.31 L64.0042 701.267 L28.3562 714.635 Z" fill="#000000" fill-rule="nonzero" fill-opacity="1" /><path clip-path="url(#clip500)" d="M32.4621 658.044 Q32.4621 662.754 36.1542 665.492 Q39.8145 668.229 46.212 668.229 Q52.6095 668.229 56.3017 665.523 Q59.9619 662.786 59.9619 658.044 Q59.9619 653.365 56.2698 650.628 Q52.5777 647.89 46.212 647.89 Q39.8781 647.89 36.186 650.628 Q32.4621 653.365 32.4621 658.044 M27.4968 658.044 Q27.4968 650.405 32.4621 646.044 Q37.4273 641.684 46.212 641.684 Q54.9649 641.684 59.9619 646.044 Q64.9272 650.405 64.9272 658.044 Q64.9272 665.714 59.9619 670.075 Q54.9649 674.404 46.212 674.404 Q37.4273 674.404 32.4621 670.075 Q27.4968 665.714 27.4968 658.044 Z" fill="#000000" fill-rule="nonzero" fill-opacity="1" /><path clip-path="url(#clip500)" d="M14.479 632.199 L14.479 626.311 L43.7294 626.311 L28.3562 608.837 L28.3562 601.357 L45.0344 620.263 L64.0042 600.561 L64.0042 608.2 L46.5939 626.311 L64.0042 626.311 L64.0042 632.199 L14.479 632.199 Z" fill="#000000" fill-rule="nonzero" fill-opacity="1" /><path clip-path="url(#clip500)" d="M44.7161 566.059 L47.5806 566.059 L47.5806 592.986 Q53.6281 592.604 56.8109 589.358 Q59.9619 586.079 59.9619 580.255 Q59.9619 576.881 59.1344 573.73 Q58.3069 570.547 56.6518 567.428 L62.1899 567.428 Q63.5267 570.579 64.227 573.889 Q64.9272 577.199 64.9272 580.605 Q64.9272 589.135 59.9619 594.132 Q54.9967 599.097 46.5303 599.097 Q37.7774 599.097 32.6531 594.387 Q27.4968 589.644 27.4968 581.623 Q27.4968 574.43 32.1438 570.261 Q36.7589 566.059 44.7161 566.059 M42.9973 571.916 Q38.1912 571.979 35.3266 574.621 Q32.4621 577.231 32.4621 581.56 Q32.4621 586.461 35.2312 589.421 Q38.0002 592.35 43.0292 592.795 L42.9973 571.916 Z" fill="#000000" fill-rule="nonzero" fill-opacity="1" /><path clip-path="url(#clip500)" d="M29.4065 533.721 L34.9447 533.721 Q33.6716 536.204 33.035 538.878 Q32.3984 541.551 32.3984 544.416 Q32.3984 548.776 33.7352 550.973 Q35.072 553.137 37.7456 553.137 Q39.7826 553.137 40.9603 551.577 Q42.1061 550.018 43.1565 545.307 L43.6021 543.302 Q44.9389 537.063 47.3897 534.453 Q49.8086 531.812 54.1691 531.812 Q59.1344 531.812 62.0308 535.758 Q64.9272 539.673 64.9272 546.548 Q64.9272 549.413 64.3543 552.532 Q63.8132 555.619 62.6992 559.057 L56.6518 559.057 Q58.3387 555.81 59.198 552.659 Q60.0256 549.508 60.0256 546.421 Q60.0256 542.283 58.6251 540.055 Q57.1929 537.827 54.6147 537.827 Q52.2276 537.827 50.9545 539.451 Q49.6813 541.042 48.5037 546.485 L48.0262 548.522 Q46.8804 553.964 44.5251 556.383 Q42.138 558.802 38.0002 558.802 Q32.9713 558.802 30.2341 555.238 Q27.4968 551.673 27.4968 545.116 Q27.4968 541.87 27.9743 539.005 Q28.4517 536.14 29.4065 533.721 Z" fill="#000000" fill-rule="nonzero" fill-opacity="1" /><path clip-path="url(#clip502)" d="M323.245 47.2441 L323.245 1423.18 L641.809 1423.18 L641.809 47.2441 L323.245 47.2441 L323.245 47.2441  Z" fill="#009af9" fill-rule="evenodd" fill-opacity="1"/>
<polyline clip-path="url(#clip502)" style="stroke:#000000; stroke-linecap:round; stroke-linejoin:round; stroke-width:4; stroke-opacity:1; fill:none" points="323.245,47.2441 323.245,1423.18 641.809,1423.18 641.809,47.2441 323.245,47.2441 "/>
<path clip-path="url(#clip502)" d="M721.45 998.259 L721.45 1423.18 L1040.02 1423.18 L1040.02 998.259 L721.45 998.259 L721.45 998.259  Z" fill="#009af9" fill-rule="evenodd" fill-opacity="1"/>
<polyline clip-path="url(#clip502)" style="stroke:#000000; stroke-linecap:round; stroke-linejoin:round; stroke-width:4; stroke-opacity:1; fill:none" points="721.45,998.259 721.45,1423.18 1040.02,1423.18 1040.02,998.259 721.45,998.259 "/>
<path clip-path="url(#clip502)" d="M1119.66 1322.01 L1119.66 1423.18 L1438.22 1423.18 L1438.22 1322.01 L1119.66 1322.01 L1119.66 1322.01  Z" fill="#009af9" fill-rule="evenodd" fill-opacity="1"/>
<polyline clip-path="url(#clip502)" style="stroke:#000000; stroke-linecap:round; stroke-linejoin:round; stroke-width:4; stroke-opacity:1; fill:none" points="1119.66,1322.01 1119.66,1423.18 1438.22,1423.18 1438.22,1322.01 1119.66,1322.01 "/>
<path clip-path="url(#clip502)" d="M1517.86 1342.24 L1517.86 1423.18 L1836.43 1423.18 L1836.43 1342.24 L1517.86 1342.24 L1517.86 1342.24  Z" fill="#009af9" fill-rule="evenodd" fill-opacity="1"/>
<polyline clip-path="url(#clip502)" style="stroke:#000000; stroke-linecap:round; stroke-linejoin:round; stroke-width:4; stroke-opacity:1; fill:none" points="1517.86,1342.24 1517.86,1423.18 1836.43,1423.18 1836.43,1342.24 1517.86,1342.24 "/>
<path clip-path="url(#clip502)" d="M1916.07 1402.95 L1916.07 1423.18 L2234.63 1423.18 L2234.63 1402.95 L1916.07 1402.95 L1916.07 1402.95  Z" fill="#009af9" fill-rule="evenodd" fill-opacity="1"/>
<polyline clip-path="url(#clip502)" style="stroke:#000000; stroke-linecap:round; stroke-linejoin:round; stroke-width:4; stroke-opacity:1; fill:none" points="1916.07,1402.95 1916.07,1423.18 2234.63,1423.18 2234.63,1402.95 1916.07,1402.95 "/>
<circle clip-path="url(#clip502)" style="fill:#009af9; stroke:none; fill-opacity:0" cx="482.527" cy="47.2441" r="2"/>
<circle clip-path="url(#clip502)" style="fill:#009af9; stroke:none; fill-opacity:0" cx="880.733" cy="998.259" r="2"/>
<circle clip-path="url(#clip502)" style="fill:#009af9; stroke:none; fill-opacity:0" cx="1278.94" cy="1322.01" r="2"/>
<circle clip-path="url(#clip502)" style="fill:#009af9; stroke:none; fill-opacity:0" cx="1677.14" cy="1342.24" r="2"/>
<circle clip-path="url(#clip502)" style="fill:#009af9; stroke:none; fill-opacity:0" cx="2075.35" cy="1402.95" r="2"/>
</svg>
