<?xml version="1.0" encoding="UTF-8" standalone="no"?>
<svg
   width="600"
   height="400"
   version="1.1"
   id="svg3"
   sodipodi:docname="ppf.svg"
   inkscape:version="1.3.2 (091e20e, 2023-11-25)"
   xmlns:inkscape="http://www.inkscape.org/namespaces/inkscape"
   xmlns:sodipodi="http://sodipodi.sourceforge.net/DTD/sodipodi-0.dtd"
   xmlns="http://www.w3.org/2000/svg"
   xmlns:svg="http://www.w3.org/2000/svg">
  <defs
     id="defs3">
    <linearGradient
       id="a"
       x1="16"
       y1="2"
       x2="16"
       y2="30"
       gradientUnits="userSpaceOnUse"
       gradientTransform="matrix(2.4534932,0,0,2.4534932,199.09302,-59.906987)">
      <stop
         offset="0"
         stop-color="#8aa7c0"
         id="stop1" />
      <stop
         offset="1"
         stop-color="#3c6e8f"
         id="stop2" />
    </linearGradient>
  </defs>
  <sodipodi:namedview
     id="namedview3"
     pagecolor="#ffffff"
     bordercolor="#000000"
     borderopacity="0.25"
     inkscape:showpageshadow="2"
     inkscape:pageopacity="0.0"
     inkscape:pagecheckerboard="0"
     inkscape:deskcolor="#d1d1d1"
     inkscape:zoom="0.83447856"
     inkscape:cx="487.13055"
     inkscape:cy="236.67475"
     inkscape:window-width="1360"
     inkscape:window-height="782"
     inkscape:window-x="0"
     inkscape:window-y="37"
     inkscape:window-maximized="0"
     inkscape:current-layer="svg3" />
  <!-- Background -->
  <rect
     width="100%"
     height="100%"
     fill="white"
     id="rect1" />
  <g
     id="g3"
     transform="translate(276.81958,246.86075)">
    <rect
       x="204"
       y="-55"
       width="68.697807"
       height="68.697807"
       rx="3.8176355"
       ry="3.8176355"
       style="fill:url(#a);stroke-width:2.45349"
       id="rect2" />
    <rect
       x="231.40797"
       y="-45.149223"
       width="14.122306"
       height="14.122306"
       style="fill:#ffffff;stroke-width:2.45349"
       id="rect3" />
    <rect
       x="248.96272"
       y="-45.149223"
       width="14.122306"
       height="14.122306"
       style="fill:#ffffff;stroke-width:2.45349"
       id="rect4" />
    <rect
       x="248.96272"
       y="-27.592028"
       width="14.122306"
       height="14.122306"
       style="fill:#ffffff;stroke-width:2.45349"
       id="rect5" />
    <rect
       x="231.40797"
       y="-27.592028"
       width="14.122306"
       height="14.122306"
       style="fill:#ffffff;stroke-width:2.45349"
       id="rect6" />
    <rect
       x="213.85077"
       y="-27.592028"
       width="14.122306"
       height="14.122306"
       style="fill:#ffffff;stroke-width:2.45349"
       id="rect7" />
    <rect
       x="213.85077"
       y="-10.037285"
       width="14.122306"
       height="14.122306"
       style="fill:#ffffff;stroke-width:2.45349"
       id="rect8" />
    <rect
       x="231.40797"
       y="-10.037285"
       width="14.122306"
       height="14.122306"
       style="fill:#ffffff;stroke-width:2.45349"
       id="rect9" />
  </g>
  <!-- Axes -->
  <line
     x1="50"
     y1="350"
     x2="550"
     y2="350"
     stroke="black"
     id="line1"
     style="stroke-width:2;stroke-dasharray:none" />
  <line
     x1="50"
     y1="350"
     x2="50"
     y2="50"
     stroke="black"
     id="line2"
     style="stroke-width:2;stroke-dasharray:none" />
  <!-- X axis label -->
  <text
     x="298.99277"
     y="382.01447"
     font-family="'Px Grotesk'"
     font-size="28px"
     text-anchor="middle"
     id="text2">convenience</text>
  <!-- Y axis label -->
  <text
     x="-198.30508"
     y="35.322304"
     font-family="'Px Grotesk'"
     font-size="28px"
     text-anchor="middle"
     transform="rotate(-90)"
     id="text3">correctness</text>
  <!-- PPF curve -->
  <path
     d="M 51.840469,96.216459 Q 472.73922,110.87217 498.38614,351.39114"
     stroke="#000000"
     stroke-width="1.42027"
     fill="none"
     id="path3"
     style="stroke-width:2;stroke-dasharray:none" />
  <path
     d="m 176.28545,24.648144 c -19.78428,0 -35.88653,16.109841 -35.88653,35.886541 0,19.77668 16.10984,35.88652 35.88653,35.88652 19.77669,0 35.88654,-16.10984 35.88654,-35.88652 0,-19.7767 -16.10985,-35.886541 -35.88654,-35.886541 z m -0.0531,3.188561 a 2.3534642,2.361056 0 0 1 2.29273,2.36106 2.3610565,2.3610565 0 0 1 -4.72211,0 2.361056,2.361056 0 0 1 2.42938,-2.36106 z m 5.40538,3.88701 a 29.053895,29.053895 0 0 1 19.89056,14.16634 l -2.78619,6.28602 c -0.47829,1.08563 0.0152,2.36106 1.09322,2.84694 l 5.35982,2.37624 a 29.053895,29.053895 0 0 1 0.0607,5.04096 h -2.98359 c -0.29608,0 -0.41755,0.19739 -0.41755,0.48588 v 1.36653 c 0,3.21893 -1.81444,3.92497 -3.40873,4.09958 -1.51836,0.17461 -3.19615,-0.63771 -3.40872,-1.56391 -0.89584,-5.03338 -2.38383,-6.10383 -4.7373,-7.96382 2.92285,-1.8524 5.95958,-4.59305 5.95958,-8.2523 0,-3.95534 -2.71028,-6.44547 -4.55509,-7.66775 -2.5964,-1.70815 -5.46611,-2.04979 -6.24048,-2.04979 h -30.82279 a 29.053895,29.053895 0 0 1 16.25409,-9.17092 l 3.63648,3.8111 c 0.81992,0.85787 2.17885,0.89583 3.03673,0.0683 z m -33.55585,17.47637 a 2.361056,2.361056 0 0 1 2.29273,2.36106 2.361056,2.361056 0 0 1 -4.72211,0 2.361056,2.361056 0 0 1 2.42938,-2.36106 z m 56.29335,0.10629 a 2.361056,2.361056 0 0 1 2.29273,2.36105 2.36106,2.36106 0 0 1 -4.72212,0 2.361056,2.361056 0 0 1 2.42939,-2.36105 z m -51.84454,0.37959 h 4.11476 v 18.55441 H 148.34 a 29.053895,29.053895 0 0 1 -0.94138,-11.09165 l 5.08652,-2.26236 c 1.08563,-0.48588 1.57909,-1.75371 1.09322,-2.83935 z m 17.17269,0.19739 h 9.80104 c 0.50866,0 3.57575,0.58457 3.57575,2.88489 0,1.90555 -2.35346,2.58881 -4.28938,2.58881 h -9.095 z m 0,13.33124 h 7.50831 c 0.68327,0 3.66685,0.19739 4.61583,4.00847 0.29608,1.16915 0.95657,4.98024 1.40449,6.20253 0.44791,1.36652 2.26236,4.09957 4.19827,4.09957 h 12.2532 a 29.053895,29.053895 0 0 1 -2.6875,3.11265 l -4.98783,-1.07045 c -1.16155,-0.25053 -2.30791,0.49348 -2.55844,1.65502 l -1.18433,5.52685 a 29.053895,29.053895 0 0 1 -24.22549,-0.11388 l -1.18433,-5.52685 c -0.25053,-1.16155 -1.3893,-1.90555 -2.55085,-1.65501 l -4.88154,1.04766 a 29.053895,29.053895 0 0 1 -2.52048,-2.97599 h 23.73962 c 0.26571,0 0.44791,-0.0455 0.44791,-0.29608 v -8.39655 c 0,-0.24293 -0.1822,-0.29608 -0.44791,-0.29608 h -6.94652 z m -10.95499,19.23008 a 2.361056,2.361056 0 0 1 2.29273,2.36105 2.361056,2.361056 0 0 1 -4.72211,0 2.361056,2.361056 0 0 1 2.42938,-2.36105 z m 34.96033,0.10628 a 2.361056,2.361056 0 0 1 2.29273,2.36106 2.361056,2.361056 0 0 1 -4.72211,0 2.361056,2.361056 0 0 1 2.42938,-2.36106 z"
     id="path1"
     style="stroke-width:0.759182" />
  <path
     d="m 210.16774,60.534685 a 33.882293,33.882293 0 0 1 -33.88229,33.88228 33.882293,33.882293 0 0 1 -33.88229,-33.88228 33.882293,33.882293 0 0 1 33.88229,-33.8823 33.882293,33.882293 0 0 1 33.88229,33.8823 z m -0.63771,-3.27209 5.28391,3.27209 -5.28391,3.27207 4.53991,4.24382 -5.81533,2.17885 3.62889,5.04857 -6.14179,1.00211 2.58122,5.6635 -6.2177,-0.22016 1.42726,6.05827 -6.05827,-1.42726 0.22016,6.2177 -5.66349,-2.58122 -1.00212,6.14178 -5.04856,-3.62888 -2.17886,5.81533 -4.24382,-4.53991 -3.27208,5.2839 -3.27207,-5.2839 -4.24383,4.53991 -2.17885,-5.81533 -5.04856,3.62888 -1.00212,-6.14178 -5.6635,2.58122 0.22016,-6.2177 -6.05827,1.42726 1.42726,-6.05827 -6.2177,0.22016 2.58122,-5.6635 -6.14178,-1.00211 3.62889,-5.04857 -5.81534,-2.17885 4.53991,-4.24382 -5.2839,-3.27207 5.2839,-3.27209 -4.53991,-4.24382 5.81534,-2.17886 -3.62889,-5.04856 6.14178,-1.00212 -2.58122,-5.66349 6.2177,0.22016 -1.42726,-6.05827 6.05827,1.42726 -0.22016,-6.2177 5.6635,2.58122 1.00212,-6.141782 5.04856,3.628892 2.17885,-5.815336 4.24383,4.539906 3.27207,-5.283905 3.27208,5.283905 4.24382,-4.539906 2.17886,5.815336 5.04856,-3.628892 1.00212,6.141782 5.66349,-2.58122 -0.22016,6.2177 6.05827,-1.42726 -1.42726,6.05827 6.2177,-0.22016 -2.58122,5.6635 6.14179,1.00212 -3.62889,5.04856 5.81533,2.17885 z"
     fill-rule="evenodd"
     stroke="#000000"
     stroke-linecap="round"
     stroke-linejoin="round"
     stroke-width="2.27755"
     id="path2" />
</svg>
